<?xml version="1.0" encoding="UTF-8"?>
<svg id="Layer_2" data-name="Layer 2" xmlns="http://www.w3.org/2000/svg" viewBox="0 0 329.37 43.66">
  <defs>
    <style>
      .cls-1 {
        fill: #2d2d2d;
      }

      .cls-2 {
        fill: #ffc931;
      }

      .cls-3 {
        font-family: ChillaxVariable-Regular, 'Chillax Variable';
        font-size: 20px;
        font-variation-settings: 'wght' 400;
      }
    </style>
  </defs>
  <g id="Layer_1-2" data-name="Layer 1">
    <g>
      <g>
        <path class="cls-1" d="M261.62,43.44c-.68,0-1.31-.17-1.91-.51-.6-.34-1.07-.8-1.43-1.4-.36-.6-.54-1.25-.54-1.97,0-.75.18-1.41.54-1.97.36-.56.83-1,1.43-1.34s1.23-.51,1.91-.51c.71,0,1.36.17,1.94.51.57.34,1.04.78,1.4,1.34.36.56.54,1.21.54,1.97,0,.71-.18,1.37-.54,1.97-.36.6-.83,1.06-1.4,1.4-.58.34-1.22.51-1.94.51Z"/>
        <path class="cls-1" d="M273.21,7.94c-.68,0-1.31-.17-1.91-.51-.6-.34-1.07-.8-1.43-1.4-.36-.6-.54-1.25-.54-1.97s.18-1.37.54-1.97c.36-.6.83-1.07,1.43-1.43.6-.36,1.23-.54,1.91-.54.71,0,1.36.18,1.94.54.57.36,1.03.83,1.37,1.43.34.6.51,1.25.51,1.97s-.17,1.37-.51,1.97c-.34.6-.8,1.06-1.37,1.4-.58.34-1.22.51-1.94.51ZM273.24,12.66h0c1.63,0,2.95,1.32,2.95,2.95v25.06c0,1.63-1.32,2.95-2.95,2.95h0c-1.63,0-2.95-1.32-2.95-2.95V15.61c0-1.63,1.32-2.95,2.95-2.95Z"/>
        <path class="cls-1" d="M296.16,43.62c-2.94,0-5.58-.7-7.92-2.09-2.34-1.39-4.21-3.25-5.6-5.57-1.39-2.32-2.09-4.89-2.09-7.71s.7-5.38,2.09-7.68c1.39-2.3,3.26-4.14,5.6-5.51,2.34-1.37,4.98-2.06,7.92-2.06s5.58.69,7.92,2.06c2.34,1.37,4.19,3.22,5.54,5.54,1.35,2.32,2.03,4.87,2.03,7.65s-.68,5.39-2.03,7.71c-1.35,2.32-3.21,4.18-5.57,5.57s-4.99,2.09-7.89,2.09ZM296.16,38.02c1.83,0,3.46-.44,4.91-1.31,1.45-.87,2.59-2.05,3.43-3.54s1.25-3.11,1.25-4.86-.42-3.41-1.25-4.88c-.83-1.47-1.98-2.65-3.43-3.54-1.45-.89-3.09-1.34-4.91-1.34s-3.47.45-4.91,1.34c-1.45.89-2.61,2.07-3.48,3.54-.87,1.47-1.31,3.1-1.31,4.88s.44,3.37,1.31,4.86c.87,1.49,2.03,2.67,3.48,3.54,1.45.87,3.09,1.31,4.91,1.31Z"/>
        <g>
          <path class="cls-1" d="M19.37,19.25H2.59c-1.43,0-2.59-1.16-2.59-2.59h0c0-1.43,1.16-2.59,2.59-2.59h16.77c1.43,0,2.59,1.16,2.59,2.59h0c0,1.43-1.16,2.59-2.59,2.59ZM8.6,43.62h0c-1.65,0-2.99-1.34-2.99-2.99V10.98c0-2.09.43-3.96,1.3-5.61.86-1.65,2.14-2.96,3.83-3.92s3.76-1.45,6.21-1.45c1,0,1.96.09,2.87.27.46.09.9.21,1.32.34.71.23,1.19.9,1.19,1.65v1.85c0,1.16-1.12,1.96-2.24,1.65,0,0-.02,0-.02,0-.82-.22-1.68-.33-2.56-.33-1.81,0-3.25.43-4.31,1.3-1.07.87-1.6,2.28-1.6,4.25v29.65c0,1.65-1.34,2.99-2.99,2.99Z"/>
          <path class="cls-1" d="M27.77,3.73v36.96c0,1.64,1.33,2.97,2.97,2.97h0c1.64,0,2.97-1.33,2.97-2.97V3.73c0-1.64-1.33-2.97-2.97-2.97h0c-1.64,0-2.97,1.33-2.97,2.97Z"/>
          <path class="cls-1" d="M68.39,20.43c-1.36-2.34-3.22-4.2-5.58-5.58s-5.02-2.07-7.98-2.07-5.62.69-7.98,2.07c-2.36,1.38-4.24,3.23-5.64,5.55-1.4,2.32-2.1,4.9-2.1,7.74s.7,5.43,2.1,7.77c1.4,2.34,3.28,4.21,5.64,5.61,2.36,1.4,5.02,2.1,7.98,2.1s5.57-.7,7.95-2.1,4.25-3.27,5.61-5.61c1.36-2.34,2.04-4.93,2.04-7.77s-.68-5.37-2.04-7.71ZM63.23,33.09c-.84,1.5-1.99,2.69-3.45,3.57-1.46.88-3.11,1.32-4.95,1.32s-3.49-.44-4.95-1.32c-1.46-.88-2.63-2.07-3.51-3.57s-1.32-3.13-1.32-4.89.44-3.44,1.32-4.92,2.05-2.67,3.51-3.57c1.46-.9,3.11-1.35,4.95-1.35s3.49.45,4.95,1.35c1.46.9,2.61,2.09,3.45,3.57.84,1.48,1.26,3.12,1.26,4.92s-.42,3.39-1.26,4.89Z"/>
          <path class="cls-1" d="M185.92,20.28c-1.32-2.32-3.13-4.15-5.43-5.49-2.3-1.34-4.95-2.01-7.95-2.01-2.36,0-4.53.55-6.51,1.65-1.34.74-2.49,1.65-3.45,2.73V2.97c0-1.64-1.33-2.97-2.97-2.97h0c-1.64,0-2.97,1.33-2.97,2.97v25.29c0,2.88.69,5.49,2.07,7.83,1.38,2.34,3.25,4.18,5.61,5.52,2.36,1.34,5.02,2.01,7.98,2.01s5.62-.7,7.98-2.1c2.36-1.4,4.22-3.26,5.58-5.58s2.04-4.88,2.04-7.68c0-3-.66-5.66-1.98-7.98ZM180.7,33.12c-.84,1.48-1.99,2.67-3.45,3.57-1.46.9-3.11,1.35-4.95,1.35s-3.49-.45-4.95-1.35c-1.46-.9-2.62-2.09-3.48-3.57-.86-1.48-1.29-3.12-1.29-4.92s.43-3.39,1.29-4.89,2.02-2.69,3.48-3.57c1.46-.88,3.11-1.32,4.95-1.32s3.49.44,4.95,1.32c1.46.88,2.61,2.07,3.45,3.57.84,1.5,1.26,3.13,1.26,4.89s-.42,3.44-1.26,4.92Z"/>
          <path class="cls-1" d="M220.64,27.3c0-2.72-.59-5.19-1.77-7.41-1.18-2.22-2.84-3.98-4.98-5.28-2.14-1.3-4.69-1.95-7.65-1.95s-5.56.69-7.8,2.07-3.98,3.24-5.22,5.58c-1.24,2.34-1.86,4.91-1.86,7.71,0,3,.68,5.67,2.04,8.01,1.36,2.34,3.22,4.18,5.58,5.52,2.36,1.34,5.02,2.01,7.98,2.01s5.46-.66,7.74-1.98c1.43-.83,2.66-1.89,3.7-3.19s.53-3.14-.9-3.87h0c-1.08-.56-2.39-.27-3.18.65-.69.79-1.49,1.43-2.4,1.92-1.5.8-3.17,1.2-5.01,1.2-2.04,0-3.82-.49-5.34-1.47-1.52-.98-2.68-2.29-3.48-3.93-.48-.98-.79-2.04-.94-3.18h21.1c1.33,0,2.4-1.07,2.4-2.4h0ZM197.36,25.86c.24-1.48.73-2.82,1.47-4.02.74-1.2,1.74-2.14,3-2.82,1.26-.68,2.71-1.02,4.35-1.02s3.03.32,4.29.96c1.26.64,2.26,1.56,3,2.76.74,1.2,1.15,2.58,1.23,4.14h-17.34Z"/>
          <path class="cls-1" d="M253.74,27.3c0-2.72-.59-5.19-1.77-7.41-1.18-2.22-2.84-3.98-4.98-5.28-2.14-1.3-4.69-1.95-7.65-1.95s-5.56.69-7.8,2.07-3.98,3.24-5.22,5.58c-1.24,2.34-1.86,4.91-1.86,7.71,0,3,.68,5.67,2.04,8.01,1.36,2.34,3.22,4.18,5.58,5.52,2.36,1.34,5.02,2.01,7.98,2.01s5.46-.66,7.74-1.98c1.43-.83,2.66-1.89,3.7-3.19s.53-3.14-.9-3.87h0c-1.08-.56-2.39-.27-3.18.65-.69.79-1.49,1.43-2.4,1.92-1.5.8-3.17,1.2-5.01,1.2-2.04,0-3.82-.49-5.34-1.47-1.52-.98-2.68-2.29-3.48-3.93-.48-.98-.79-2.04-.94-3.18h21.1c1.33,0,2.4-1.07,2.4-2.4h0ZM230.46,25.86c.24-1.48.73-2.82,1.47-4.02s1.74-2.14,3-2.82,2.71-1.02,4.35-1.02,3.03.32,4.29.96,2.26,1.56,3,2.76,1.15,2.58,1.23,4.14h-17.34Z"/>
          <g>
            <path class="cls-1" d="M118.56,28.07c-.6.67-1.25,1.32-2.01,1.87-.71.52-1.51.95-2.45,1.23-.77.24-1.63.38-2.61.38s-1.85-.14-2.62-.38c-.93-.28-1.72-.71-2.43-1.21h0c-.77-.56-1.42-1.22-2.03-1.89.44-1.04.89-2.07,1.35-3.04.07.08.14.17.2.25.16.18.31.36.46.53.99,1.14,1.95,2.05,3.28,2.48.18.06.37.11.57.14.37.08.78.12,1.22.12s.85-.04,1.22-.12c.2-.03.39-.08.57-.14,1.33-.43,2.29-1.34,3.28-2.48.15-.17.29-.34.45-.52.07-.09.14-.17.21-.26.46.97.9,2,1.34,3.04Z"/>
            <path class="cls-1" d="M121.18,34.09c-1.13,1.14-2.4,2.19-3.92,2.96-.18.09-.36.18-.54.26-1.48.66-3.19,1.07-5.23,1.07s-3.75-.41-5.23-1.07c-.19-.08-.36-.17-.54-.26-1.52-.77-2.79-1.82-3.92-2.96.06-.13.12-.25.17-.38h.01c.15-.31.29-.62.43-.94.25-.54.48-1.09.72-1.64.24.27.48.53.73.78.14.15.29.3.44.43.73.72,1.5,1.34,2.37,1.82.17.11.34.2.52.28,1.21.59,2.6.94,4.3.94s3.08-.34,4.29-.94c.18-.08.35-.17.52-.27.87-.49,1.65-1.11,2.38-1.83.15-.13.3-.28.43-.43.26-.25.5-.51.74-.78.23.55.46,1.1.71,1.64.14.31.28.62.43.93.06.13.12.26.19.39Z"/>
            <g>
              <path class="cls-2" d="M117.22,25.03c-.07.09-.14.17-.21.26-.16.18-.3.35-.45.52-.99,1.14-1.95,2.05-3.28,2.48-.18.06-.37.11-.57.14-.37.08-.78.12-1.22.12s-.85-.04-1.22-.12c-.2-.03-.39-.08-.57-.14-1.33-.43-2.29-1.34-3.28-2.48-.15-.17-.3-.35-.46-.53-.06-.08-.13-.17-.2-.25.44-.94.9-1.83,1.37-2.62.19-.32.39-.63.59-.93.64-.92,1.31-1.66,2.02-2.12.3-.2.61-.34.92-.43.27-.09.55-.13.83-.13s.55.04.82.12c.32.09.63.24.93.44.72.46,1.39,1.2,2.03,2.13.19.29.39.6.58.92.47.79.93,1.68,1.37,2.62Z"/>
              <path class="cls-2" d="M119.85,31.13c-.24.27-.48.53-.74.78-.13.15-.28.3-.43.43-.73.72-1.51,1.34-2.38,1.83-.17.1-.34.19-.52.27-1.21.6-2.6.94-4.29.94s-3.09-.35-4.3-.94c-.18-.08-.35-.17-.52-.28-.87-.48-1.64-1.1-2.37-1.82-.15-.13-.3-.28-.44-.43-.25-.25-.49-.51-.73-.78.25-.58.49-1.16.73-1.74.18-.44.37-.88.55-1.32.61.67,1.26,1.33,2.03,1.88h0c.71.51,1.5.94,2.43,1.22.77.24,1.64.38,2.62.38s1.84-.14,2.61-.38c.94-.28,1.74-.71,2.45-1.23.76-.55,1.41-1.2,2.01-1.87.18.44.37.88.55,1.32.24.58.48,1.16.74,1.74Z"/>
              <path class="cls-1" d="M153.07,16.61h0c0,1.12-.65,2.09-1.61,2.67-1.03.62-1.96,1.79-2.83,3.26h0c-.2.34-.39.69-.58,1.06-.52.99-1.02,2.07-1.5,3.19t-.01.02c-.25.57-.5,1.14-.74,1.72-.12.29-.24.57-.36.86-2.7,6.44-5.75,13.7-12.4,14.22-.05,0-.09,0-.14,0-.21.03-.41.04-.62.04h-.06c-5.49-.03-8.63-4.49-11.04-9.57-.07-.13-.13-.26-.19-.39-.15-.31-.29-.62-.43-.93-.25-.54-.48-1.09-.71-1.64-.18-.4-.35-.79-.51-1.19-.08-.18-.15-.37-.23-.55-.18-.44-.37-.88-.55-1.32-.44-1.04-.88-2.07-1.34-3.04-.44-.94-.9-1.83-1.37-2.62-.19-.32-.39-.63-.58-.92-.64-.93-1.31-1.67-2.03-2.13-.3-.2-.61-.35-.93-.44-.27-.08-.54-.12-.82-.12s-.56.04-.83.13c-.31.09-.62.23-.92.43-.71.46-1.38,1.2-2.02,2.12-.2.3-.4.61-.59.93-.47.79-.93,1.68-1.37,2.62-.46.97-.91,2-1.35,3.04-.18.44-.37.88-.55,1.32-.08.18-.15.37-.23.55-.16.4-.33.79-.5,1.19-.24.55-.47,1.1-.72,1.64-.14.32-.28.63-.43.94h-.01c-.05.13-.11.25-.17.38-2.35,4.92-5.36,9.26-10.54,9.56-.18,0-.37.01-.56.01-7.2,0-10.37-7.59-13.17-14.27-.12-.29-.24-.57-.36-.86-.24-.58-.48-1.16-.73-1.73h-.01c-.48-1.13-.98-2.21-1.5-3.2-.19-.37-.38-.72-.58-1.05h0c-.87-1.49-1.8-2.66-2.83-3.28-.96-.58-1.61-1.55-1.61-2.67h0c0-2.31,2.5-3.78,4.51-2.63,1.89,1.08,3.4,2.82,4.69,4.88.12.17.22.35.32.53,1.42,2.36,2.56,5.08,3.64,7.68.4.95.79,1.9,1.2,2.82.14.32.28.64.42.95.35.77.71,1.51,1.09,2.2,1.42,2.68,3,4.62,4.92,4.62,2.61,0,4.59-3.57,6.4-7.72.12-.27.23-.54.35-.81.1-.22.19-.44.29-.67.17-.41.35-.83.52-1.25.02-.05.04-.09.06-.14.13-.32.27-.64.4-.96.3-.73.62-1.46.94-2.18.28-.62.55-1.22.84-1.81.08-.18.17-.36.27-.54.1-.22.22-.45.33-.66,1.93-3.69,4.35-6.82,7.95-7.8-.44-.7-1.22-1.37-2.49-2.05-4.02-2.15-4.86-4.04-4.9-4.12-.06-.15.01-.32.16-.38.15-.07.32,0,.38.15.01.02.83,1.8,4.63,3.83,1.48.78,2.34,1.59,2.82,2.43.58-.12,1.19-.18,1.84-.18s1.25.06,1.83.18c.48-.84,1.34-1.65,2.82-2.43,3.8-2.03,4.62-3.81,4.63-3.83.07-.15.24-.22.39-.15.15.06.22.23.15.38-.03.08-.88,1.97-4.89,4.12-1.27.68-2.05,1.35-2.5,2.05,3.59.97,6.02,4.1,7.95,7.8.11.21.23.44.34.66.09.18.18.36.26.54h.01c.23.49.46.99.69,1.5.37.82.73,1.66,1.08,2.49.13.32.27.64.4.96.02.05.04.09.06.14.17.42.35.84.52,1.25.1.23.19.45.29.67.12.27.23.54.35.81,1.82,4.15,3.8,7.72,6.41,7.72,2.06,0,3.73-2.23,5.23-5.22.27-.51.52-1.05.77-1.6.14-.31.28-.63.42-.96.41-.92.81-1.87,1.2-2.81,1.08-2.6,2.22-5.32,3.64-7.68.1-.18.2-.36.32-.53,1.29-2.06,2.81-3.8,4.7-4.88,2.01-1.15,4.51.32,4.51,2.63Z"/>
            </g>
          </g>
        </g>
      </g>
      <text class="cls-3" transform="translate(312.65 26.33)"><tspan x="0" y="0">™</tspan></text>
    </g>
  </g>
</svg>